<mxfile host="app.diagrams.net" agent="Mozilla/5.0 (Macintosh; Intel Mac OS X 10_15_7) AppleWebKit/537.36 (KHTML, like Gecko) Chrome/134.0.0.0 Safari/537.36" version="26.2.10">
  <diagram name="Page-1" id="9N8eXMv8AcEnYwuItZZL">
    <mxGraphModel dx="716" dy="433" grid="1" gridSize="10" guides="1" tooltips="1" connect="1" arrows="1" fold="1" page="1" pageScale="1" pageWidth="827" pageHeight="1169" math="0" shadow="0">
      <root>
        <mxCell id="0" />
        <mxCell id="1" parent="0" />
        <mxCell id="3gUJAdAVOH0FcPLW6eS--47" value="Soil Moisture" style="shape=crossbar;whiteSpace=wrap;html=1;rounded=1;direction=south;align=left;verticalAlign=middle;labelPosition=right;verticalLabelPosition=middle;fontSize=8;spacing=-6;" vertex="1" parent="1">
          <mxGeometry x="690" y="330" width="20" height="60" as="geometry" />
        </mxCell>
        <mxCell id="3gUJAdAVOH0FcPLW6eS--48" value="Frost" style="shape=crossbar;whiteSpace=wrap;html=1;rounded=1;fontSize=8;verticalAlign=bottom;labelPosition=center;verticalLabelPosition=top;align=center;spacingTop=0;spacing=-10;" vertex="1" parent="1">
          <mxGeometry x="200" y="300" width="120" height="20" as="geometry" />
        </mxCell>
        <mxCell id="3gUJAdAVOH0FcPLW6eS--49" value="Thaw" style="shape=crossbar;whiteSpace=wrap;html=1;rounded=1;fontSize=8;verticalAlign=bottom;labelPosition=center;verticalLabelPosition=top;align=center;spacingTop=0;spacing=-10;" vertex="1" parent="1">
          <mxGeometry x="320" y="300" width="50" height="20" as="geometry" />
        </mxCell>
        <mxCell id="3gUJAdAVOH0FcPLW6eS--50" value="" style="shape=crossbar;whiteSpace=wrap;html=1;rounded=1;fontSize=8;verticalAlign=bottom;labelPosition=center;verticalLabelPosition=top;align=center;spacingTop=0;spacing=-10;" vertex="1" parent="1">
          <mxGeometry x="370" y="300" width="20" height="20" as="geometry" />
        </mxCell>
        <mxCell id="3gUJAdAVOH0FcPLW6eS--53" value="Dry" style="shape=crossbar;whiteSpace=wrap;html=1;rounded=1;fontSize=8;verticalAlign=bottom;labelPosition=center;verticalLabelPosition=top;align=center;spacingTop=0;spacing=-10;" vertex="1" parent="1">
          <mxGeometry x="390" y="300" width="170" height="20" as="geometry" />
        </mxCell>
        <mxCell id="3gUJAdAVOH0FcPLW6eS--54" value="" style="shape=crossbar;whiteSpace=wrap;html=1;rounded=1;fontSize=8;verticalAlign=bottom;labelPosition=center;verticalLabelPosition=top;align=center;spacingTop=0;spacing=-10;" vertex="1" parent="1">
          <mxGeometry x="560" y="300" width="20" height="20" as="geometry" />
        </mxCell>
        <mxCell id="3gUJAdAVOH0FcPLW6eS--55" value="Rain buildup" style="shape=crossbar;whiteSpace=wrap;html=1;rounded=1;fontSize=8;verticalAlign=bottom;labelPosition=center;verticalLabelPosition=top;align=center;spacingTop=0;spacing=-10;" vertex="1" parent="1">
          <mxGeometry x="580" y="300" width="60" height="20" as="geometry" />
        </mxCell>
        <mxCell id="3gUJAdAVOH0FcPLW6eS--56" value="Frost" style="shape=crossbar;whiteSpace=wrap;html=1;rounded=1;fontSize=8;verticalAlign=bottom;labelPosition=center;verticalLabelPosition=top;align=center;spacingTop=0;spacing=-10;" vertex="1" parent="1">
          <mxGeometry x="640" y="300" width="40" height="20" as="geometry" />
        </mxCell>
        <mxCell id="3gUJAdAVOH0FcPLW6eS--5" value="" style="group" vertex="1" connectable="0" parent="1">
          <mxGeometry x="200" y="400" width="480" height="27" as="geometry" />
        </mxCell>
        <mxCell id="3gUJAdAVOH0FcPLW6eS--2" value="" style="shape=crossbar;whiteSpace=wrap;html=1;rounded=1;treeFolding=0;" vertex="1" parent="3gUJAdAVOH0FcPLW6eS--5">
          <mxGeometry width="479.99999999999983" height="20" as="geometry" />
        </mxCell>
        <mxCell id="3gUJAdAVOH0FcPLW6eS--4" value="" style="endArrow=none;html=1;rounded=0;" edge="1" parent="3gUJAdAVOH0FcPLW6eS--5">
          <mxGeometry width="50" height="50" relative="1" as="geometry">
            <mxPoint x="39.99999999999999" y="19.999999999999886" as="sourcePoint" />
            <mxPoint x="39.99999999999999" as="targetPoint" />
          </mxGeometry>
        </mxCell>
        <mxCell id="3gUJAdAVOH0FcPLW6eS--7" value="" style="endArrow=none;html=1;rounded=0;" edge="1" parent="3gUJAdAVOH0FcPLW6eS--5">
          <mxGeometry width="50" height="50" relative="1" as="geometry">
            <mxPoint x="79.99999999999999" y="19.999999999999886" as="sourcePoint" />
            <mxPoint x="79.99999999999999" as="targetPoint" />
          </mxGeometry>
        </mxCell>
        <mxCell id="3gUJAdAVOH0FcPLW6eS--8" value="" style="endArrow=none;html=1;rounded=0;" edge="1" parent="3gUJAdAVOH0FcPLW6eS--5">
          <mxGeometry width="50" height="50" relative="1" as="geometry">
            <mxPoint x="120" y="19.999999999999886" as="sourcePoint" />
            <mxPoint x="120" as="targetPoint" />
          </mxGeometry>
        </mxCell>
        <mxCell id="3gUJAdAVOH0FcPLW6eS--9" value="" style="endArrow=none;html=1;rounded=0;" edge="1" parent="3gUJAdAVOH0FcPLW6eS--5">
          <mxGeometry width="50" height="50" relative="1" as="geometry">
            <mxPoint x="159.99999999999997" y="19.999999999999886" as="sourcePoint" />
            <mxPoint x="159.99999999999997" as="targetPoint" />
          </mxGeometry>
        </mxCell>
        <mxCell id="3gUJAdAVOH0FcPLW6eS--10" value="" style="endArrow=none;html=1;rounded=0;" edge="1" parent="3gUJAdAVOH0FcPLW6eS--5">
          <mxGeometry width="50" height="50" relative="1" as="geometry">
            <mxPoint x="200.00000000000003" y="19.999999999999886" as="sourcePoint" />
            <mxPoint x="200.00000000000003" as="targetPoint" />
          </mxGeometry>
        </mxCell>
        <mxCell id="3gUJAdAVOH0FcPLW6eS--11" value="" style="endArrow=none;html=1;rounded=0;" edge="1" parent="3gUJAdAVOH0FcPLW6eS--5">
          <mxGeometry width="50" height="50" relative="1" as="geometry">
            <mxPoint x="239.74" y="19.999999999999886" as="sourcePoint" />
            <mxPoint x="239.74" as="targetPoint" />
          </mxGeometry>
        </mxCell>
        <mxCell id="3gUJAdAVOH0FcPLW6eS--12" value="" style="endArrow=none;html=1;rounded=0;" edge="1" parent="3gUJAdAVOH0FcPLW6eS--5">
          <mxGeometry width="50" height="50" relative="1" as="geometry">
            <mxPoint x="280.00000000000006" y="19.999999999999886" as="sourcePoint" />
            <mxPoint x="280.00000000000006" as="targetPoint" />
          </mxGeometry>
        </mxCell>
        <mxCell id="3gUJAdAVOH0FcPLW6eS--13" value="" style="endArrow=none;html=1;rounded=0;" edge="1" parent="3gUJAdAVOH0FcPLW6eS--5">
          <mxGeometry width="50" height="50" relative="1" as="geometry">
            <mxPoint x="319.99999999999994" y="19.999999999999886" as="sourcePoint" />
            <mxPoint x="319.99999999999994" as="targetPoint" />
          </mxGeometry>
        </mxCell>
        <mxCell id="3gUJAdAVOH0FcPLW6eS--14" value="" style="endArrow=none;html=1;rounded=0;" edge="1" parent="3gUJAdAVOH0FcPLW6eS--5">
          <mxGeometry width="50" height="50" relative="1" as="geometry">
            <mxPoint x="360.00000000000006" y="19.999999999999886" as="sourcePoint" />
            <mxPoint x="360.00000000000006" as="targetPoint" />
          </mxGeometry>
        </mxCell>
        <mxCell id="3gUJAdAVOH0FcPLW6eS--15" value="" style="endArrow=none;html=1;rounded=0;" edge="1" parent="3gUJAdAVOH0FcPLW6eS--5">
          <mxGeometry width="50" height="50" relative="1" as="geometry">
            <mxPoint x="400.00000000000006" y="19.999999999999886" as="sourcePoint" />
            <mxPoint x="400.00000000000006" as="targetPoint" />
          </mxGeometry>
        </mxCell>
        <mxCell id="3gUJAdAVOH0FcPLW6eS--16" value="" style="endArrow=none;html=1;rounded=0;" edge="1" parent="3gUJAdAVOH0FcPLW6eS--5">
          <mxGeometry width="50" height="50" relative="1" as="geometry">
            <mxPoint x="439.99999999999994" y="19.999999999999886" as="sourcePoint" />
            <mxPoint x="439.99999999999994" as="targetPoint" />
          </mxGeometry>
        </mxCell>
        <mxCell id="3gUJAdAVOH0FcPLW6eS--21" value="Apr" style="text;html=1;align=center;verticalAlign=bottom;whiteSpace=wrap;rounded=0;fontSize=8;spacing=6;" vertex="1" parent="3gUJAdAVOH0FcPLW6eS--5">
          <mxGeometry x="120" y="20" width="40" height="7" as="geometry" />
        </mxCell>
        <mxCell id="3gUJAdAVOH0FcPLW6eS--22" value="May" style="text;html=1;align=center;verticalAlign=bottom;whiteSpace=wrap;rounded=0;fontSize=8;spacing=6;" vertex="1" parent="3gUJAdAVOH0FcPLW6eS--5">
          <mxGeometry x="160" y="20" width="40" height="7" as="geometry" />
        </mxCell>
        <mxCell id="3gUJAdAVOH0FcPLW6eS--23" value="Jun" style="text;html=1;align=center;verticalAlign=bottom;whiteSpace=wrap;rounded=0;fontSize=8;spacing=6;" vertex="1" parent="3gUJAdAVOH0FcPLW6eS--5">
          <mxGeometry x="200" y="20" width="40" height="7" as="geometry" />
        </mxCell>
        <mxCell id="3gUJAdAVOH0FcPLW6eS--24" value="Jul" style="text;html=1;align=center;verticalAlign=bottom;whiteSpace=wrap;rounded=0;fontSize=8;spacing=6;" vertex="1" parent="3gUJAdAVOH0FcPLW6eS--5">
          <mxGeometry x="240" y="20" width="40" height="7" as="geometry" />
        </mxCell>
        <mxCell id="3gUJAdAVOH0FcPLW6eS--25" value="Aug" style="text;html=1;align=center;verticalAlign=bottom;whiteSpace=wrap;rounded=0;fontSize=8;spacing=6;" vertex="1" parent="3gUJAdAVOH0FcPLW6eS--5">
          <mxGeometry x="280" y="20" width="40" height="7" as="geometry" />
        </mxCell>
        <mxCell id="3gUJAdAVOH0FcPLW6eS--26" value="Sep" style="text;html=1;align=center;verticalAlign=bottom;whiteSpace=wrap;rounded=0;fontSize=8;spacing=6;" vertex="1" parent="3gUJAdAVOH0FcPLW6eS--5">
          <mxGeometry x="320" y="20" width="40" height="7" as="geometry" />
        </mxCell>
        <mxCell id="3gUJAdAVOH0FcPLW6eS--27" value="Oct" style="text;html=1;align=center;verticalAlign=bottom;whiteSpace=wrap;rounded=0;fontSize=8;spacing=6;" vertex="1" parent="3gUJAdAVOH0FcPLW6eS--5">
          <mxGeometry x="360" y="20" width="40" height="7" as="geometry" />
        </mxCell>
        <mxCell id="3gUJAdAVOH0FcPLW6eS--28" value="Nov" style="text;html=1;align=center;verticalAlign=bottom;whiteSpace=wrap;rounded=0;fontSize=8;spacing=6;" vertex="1" parent="3gUJAdAVOH0FcPLW6eS--5">
          <mxGeometry x="400" y="20" width="40" height="7" as="geometry" />
        </mxCell>
        <mxCell id="3gUJAdAVOH0FcPLW6eS--29" value="Dec" style="text;html=1;align=center;verticalAlign=bottom;whiteSpace=wrap;rounded=0;fontSize=8;spacing=6;" vertex="1" parent="3gUJAdAVOH0FcPLW6eS--5">
          <mxGeometry x="440" y="20" width="40" height="7" as="geometry" />
        </mxCell>
        <mxCell id="3gUJAdAVOH0FcPLW6eS--20" value="Mar" style="text;html=1;align=center;verticalAlign=bottom;whiteSpace=wrap;rounded=0;fontSize=8;spacing=6;" vertex="1" parent="3gUJAdAVOH0FcPLW6eS--5">
          <mxGeometry x="80" y="20" width="40" height="7" as="geometry" />
        </mxCell>
        <mxCell id="3gUJAdAVOH0FcPLW6eS--19" value="Feb" style="text;html=1;align=center;verticalAlign=bottom;whiteSpace=wrap;rounded=0;fontSize=8;spacing=6;" vertex="1" parent="3gUJAdAVOH0FcPLW6eS--5">
          <mxGeometry x="40" y="20" width="40" height="7" as="geometry" />
        </mxCell>
        <mxCell id="3gUJAdAVOH0FcPLW6eS--17" value="Jan" style="text;html=1;align=center;verticalAlign=bottom;whiteSpace=wrap;rounded=0;fontSize=8;spacing=6;" vertex="1" parent="3gUJAdAVOH0FcPLW6eS--5">
          <mxGeometry y="20" width="40" height="7" as="geometry" />
        </mxCell>
        <mxCell id="3gUJAdAVOH0FcPLW6eS--30" value="" style="shape=partialRectangle;whiteSpace=wrap;html=1;top=0;bottom=0;fillColor=#dae8fc;strokeColor=default;" vertex="1" parent="1">
          <mxGeometry x="200" y="330" width="480" height="60" as="geometry" />
        </mxCell>
        <mxCell id="3gUJAdAVOH0FcPLW6eS--40" value="" style="shape=partialRectangle;whiteSpace=wrap;html=1;top=0;bottom=0;fillColor=#d5e8d4;strokeColor=light-dark(#000000, #446e2c);" vertex="1" parent="1">
          <mxGeometry x="320" y="330" width="320" height="60" as="geometry" />
        </mxCell>
        <mxCell id="3gUJAdAVOH0FcPLW6eS--41" value="" style="shape=partialRectangle;whiteSpace=wrap;html=1;top=0;bottom=0;fillColor=#f8cecc;strokeColor=light-dark(#000000, #d7817e);" vertex="1" parent="1">
          <mxGeometry x="320" y="330" width="50" height="60" as="geometry" />
        </mxCell>
        <mxCell id="3gUJAdAVOH0FcPLW6eS--42" value="" style="shape=partialRectangle;whiteSpace=wrap;html=1;top=0;bottom=0;fillColor=#fff2cc;strokeColor=light-dark(#000000, #6d5100);" vertex="1" parent="1">
          <mxGeometry x="370" y="330" width="20" height="60" as="geometry" />
        </mxCell>
        <mxCell id="3gUJAdAVOH0FcPLW6eS--43" value="" style="shape=partialRectangle;whiteSpace=wrap;html=1;top=0;bottom=0;fillColor=#f8cecc;strokeColor=light-dark(#000000, #d7817e);" vertex="1" parent="1">
          <mxGeometry x="580" y="330" width="60" height="60" as="geometry" />
        </mxCell>
        <mxCell id="3gUJAdAVOH0FcPLW6eS--44" value="" style="shape=partialRectangle;whiteSpace=wrap;html=1;top=0;bottom=0;fillColor=#fff2cc;strokeColor=#000000;" vertex="1" parent="1">
          <mxGeometry x="560" y="330" width="20" height="60" as="geometry" />
        </mxCell>
        <mxCell id="3gUJAdAVOH0FcPLW6eS--46" value="" style="curved=1;endArrow=none;html=1;rounded=0;exitX=0;exitY=0.5;exitDx=0;exitDy=0;startFill=0;entryX=0.99;entryY=0.079;entryDx=0;entryDy=0;entryPerimeter=0;" edge="1" parent="1" source="3gUJAdAVOH0FcPLW6eS--41" target="3gUJAdAVOH0FcPLW6eS--43">
          <mxGeometry width="50" height="50" relative="1" as="geometry">
            <mxPoint x="380" y="400" as="sourcePoint" />
            <mxPoint x="430" y="350" as="targetPoint" />
            <Array as="points">
              <mxPoint x="340" y="320" />
              <mxPoint x="370" y="360" />
              <mxPoint x="390" y="370" />
              <mxPoint x="470" y="380" />
              <mxPoint x="530" y="380" />
              <mxPoint x="570" y="360" />
              <mxPoint x="620" y="330" />
            </Array>
          </mxGeometry>
        </mxCell>
        <mxCell id="3gUJAdAVOH0FcPLW6eS--84" value="" style="group;strokeColor=none;" vertex="1" connectable="0" parent="1">
          <mxGeometry x="90" y="310" width="100" height="100" as="geometry" />
        </mxCell>
        <mxCell id="3gUJAdAVOH0FcPLW6eS--80" value="&lt;font&gt;Frost&lt;/font&gt;" style="rounded=0;whiteSpace=wrap;html=1;fillColor=#dae8fc;strokeColor=#6c8ebf;fontSize=8;" vertex="1" parent="3gUJAdAVOH0FcPLW6eS--84">
          <mxGeometry width="100" height="25" as="geometry" />
        </mxCell>
        <mxCell id="3gUJAdAVOH0FcPLW6eS--81" value="&lt;font&gt;Good trafficability&lt;/font&gt;" style="rounded=0;whiteSpace=wrap;html=1;fillColor=#d5e8d4;strokeColor=#82b366;fontSize=8;" vertex="1" parent="3gUJAdAVOH0FcPLW6eS--84">
          <mxGeometry y="25" width="100" height="25" as="geometry" />
        </mxCell>
        <mxCell id="3gUJAdAVOH0FcPLW6eS--82" value="&lt;font&gt;Decent trafficability&lt;/font&gt;" style="rounded=0;whiteSpace=wrap;html=1;fillColor=#fff2cc;strokeColor=#d6b656;fontSize=8;" vertex="1" parent="3gUJAdAVOH0FcPLW6eS--84">
          <mxGeometry y="50" width="100" height="25" as="geometry" />
        </mxCell>
        <mxCell id="3gUJAdAVOH0FcPLW6eS--83" value="&lt;font&gt;Bad trafficability&lt;/font&gt;" style="rounded=0;whiteSpace=wrap;html=1;fillColor=#f8cecc;strokeColor=#b85450;fontSize=8;" vertex="1" parent="3gUJAdAVOH0FcPLW6eS--84">
          <mxGeometry y="75" width="100" height="25" as="geometry" />
        </mxCell>
      </root>
    </mxGraphModel>
  </diagram>
</mxfile>
